<svg width="640" height="640" viewBox="0 0 640 640" fill="none" xmlns="http://www.w3.org/2000/svg">
<g clip-path="url(#clip0_1_23)">
<mask id="mask0_1_23" style="mask-type:luminance" maskUnits="userSpaceOnUse" x="0" y="0" width="640" height="640">
<path d="M640 0H0V640H640V0Z" fill="white"/>
</mask>
<g mask="url(#mask0_1_23)">
<path d="M377.296 158.265C212.869 305.214 197.277 321.193 185.278 431.389L85.4555 528.741C-36.0237 472.966 -23.5036 310.038 94.5919 283.334C86.8091 183.279 165.652 136.969 242.127 158.265C316.232 57.1955 510.464 84.9136 526.368 245.137C628.559 264.743 706.387 450.995 556.145 528.402C522.429 545.912 431.621 538.205 225.546 538.881L262.43 502.375C379.51 518.6 411.656 454.037 541.257 321.193L511.973 291.674L380.863 409.983L354.963 385.983L476.442 257.534L448.018 227.111L314.588 345.362L288.631 317.315L408.428 190.605L377.296 158.265Z" fill="#C85A1A" stroke="#C85A1A"/>
</g>
</g>
<defs>
<clipPath id="clip0_1_23">
<rect width="640" height="640" fill="white"/>
</clipPath>
</defs>
</svg>
